<?xml version="1.0" standalone="no"?>
<!DOCTYPE svg PUBLIC "-//W3C//DTD SVG 20010904//EN"
 "http://www.w3.org/TR/2001/REC-SVG-20010904/DTD/svg10.dtd">
<svg version="1.0" xmlns="http://www.w3.org/2000/svg"
 width="700.000000pt" height="700.000000pt" viewBox="0 0 700.000000 700.000000"
 preserveAspectRatio="xMidYMid meet">
<metadata>
Created by potrace 1.14, written by Peter Selinger 2001-2017
</metadata>
<g transform="translate(0.000000,700.000000) scale(0.100000,-0.100000)"
fill="#000000" stroke="none">
<path d="M0 3500 l0 -3500 3500 0 3500 0 0 3500 0 3500 -3500 0 -3500 0 0
-3500z m3148 1431 c222 -65 404 -220 498 -426 14 -30 32 -55 39 -55 8 0 31 32
51 71 44 83 151 202 240 265 83 59 209 117 319 145 79 21 112 24 275 23 209 0
281 -14 420 -80 237 -112 385 -309 452 -601 22 -98 22 -103 25 -1176 l4 -1077
-283 2 -283 3 -5 1025 c-5 1014 -5 1026 -26 1087 -31 88 -66 144 -125 197 -56
51 -165 107 -244 126 -71 17 -247 14 -320 -5 -179 -47 -310 -171 -378 -358
l-22 -62 -5 -1005 -5 -1005 -282 -3 -282 -2 -3 1032 -3 1033 -23 59 c-61 163
-194 279 -357 316 -77 17 -223 15 -291 -5 -190 -55 -343 -201 -409 -392 -43
-124 -45 -179 -45 -1134 l0 -909 -280 0 -280 0 0 1455 0 1455 270 0 270 0 0
-240 c0 -228 1 -240 19 -240 12 0 24 14 35 44 10 25 35 72 57 106 100 155 247
266 426 320 113 34 158 39 323 35 120 -2 171 -8 228 -24z"/>
</g>
</svg>
